<svg width="177" height="122" viewBox="0 0 177 122" fill="none" xmlns="http://www.w3.org/2000/svg">
<path d="M69.6354 55.5357C69.6354 55.5357 67.1327 59.371 62.1256 63.9736C56.6262 69.0292 56.8553 73.9463 57.6468 76.2467C60.1836 83.6301 67.0011 82.5106 67.0011 82.5106L66.7378 85.0675C66.7378 85.0675 64.7616 84.5564 61.4675 86.8569C58.1733 89.1574 58.4366 93.6335 58.4366 93.6335C58.4366 93.6335 53.2979 94.7838 53.2979 99.0036C53.2979 103.223 58.6998 109.487 65.9463 109.359C73.1928 109.231 74.6083 98.7096 80.9658 100.538C91.6381 103.606 84.7523 114.48 86.2191 116.852C87.4054 118.769 98.2265 121.889 100.071 121.378C101.916 120.867 103.365 118.821 103.234 116.136C103.102 113.451 99.9394 111.661 99.9394 111.661C99.9394 111.661 102.97 108.593 102.31 100.282C101.652 91.9723 94.8007 90.6939 94.8007 90.6939C94.8007 90.6939 96.8452 85.2008 96.3187 78.0413C95.7922 70.8818 94.6348 69.1471 94.6348 69.1471C94.6348 69.1471 101.916 69.9828 108.504 63.8454C117.157 55.7835 114.696 46.9696 111.007 45.9459C108.241 45.1785 105.078 46.3287 103.497 50.0375C101.916 53.7446 96.2503 57.8362 91.6398 57.5798C88.1815 57.3884 86.6327 54.6401 86.6327 54.6401L69.6354 55.5357Z" fill="white"/>
<path d="M112.697 47.0649C112.677 47.2051 112.656 47.3452 112.634 47.4854C113.577 50.7156 113.321 54.1167 111.786 57.1384C109.504 61.6249 104.256 64.0279 99.5956 65.0927C97.2724 65.6242 94.8689 65.9353 92.4876 66.0429C92.1936 66.0566 91.8995 66.0669 91.6072 66.0754C93.6005 68.099 95.0775 70.7361 95.6057 73.5237C96.0519 75.8789 96.0758 78.2135 96.069 80.5789C96.1237 80.8712 96.1647 81.1703 96.1972 81.4796C96.3271 82.7204 96.0758 84.0843 95.6296 85.2448C94.9715 86.959 94.1526 88.287 92.9731 89.6953C91.3628 91.6147 88.9985 93.2998 86.5437 93.9049C83.4615 94.6654 80.3691 93.922 77.5672 92.5906C76.6373 92.1496 75.7244 91.5702 74.8834 90.89C73.9209 90.3602 73.0491 89.6851 72.2866 88.863C71.5806 88.3981 70.9447 87.87 70.5857 87.0359C70.0831 85.8669 70.1908 84.5782 70.7139 83.4776C70.772 83.2896 70.8644 83.1204 70.9926 82.9717C71.1293 82.7546 71.2832 82.5461 71.4524 82.353C71.8747 81.3583 72.6012 80.473 73.6183 79.8167C73.9448 79.6064 74.2987 79.4441 74.6662 79.3261C75.1124 78.6613 75.709 78.0956 76.3945 77.6717C76.5313 77.1692 76.7518 76.6958 77.0356 76.2617C77.0544 75.4653 77.2852 74.7081 77.6681 74.0347C77.3843 73.3853 77.2339 72.6862 77.2595 71.977C77.2647 71.8214 77.2647 71.6676 77.263 71.5138C77.2407 71.4249 77.2168 71.336 77.1912 71.2489C77.1194 71.1207 77.0458 70.9959 76.9672 70.8729C76.8014 70.6934 76.6287 70.5208 76.4492 70.355C76.3877 70.7977 76.3039 71.2352 76.2167 71.6505C76.0287 72.5529 75.5603 73.5323 75.1945 74.2911C75.0799 74.5287 74.9569 74.7389 74.803 74.9542C73.8132 76.3267 72.9961 77.2239 71.5858 78.1742C71.4678 78.2528 71.3652 78.3144 71.2404 78.381C70.6353 78.6972 69.7754 79.0852 69.1139 79.2595C67.7924 79.6081 66.712 79.5945 65.4145 79.4201C65.247 79.3979 65.0829 79.3723 64.9222 79.3467C64.5307 79.4082 64.1375 79.4424 63.7495 79.4424C61.5494 79.4424 59.5972 78.5212 58.0073 77.0599C57.98 77.0342 57.9561 77.0086 57.9287 76.983C60.6519 83.5494 67.0026 82.5085 67.0026 82.5085L66.7394 85.0653C66.7394 85.0653 64.9188 84.5953 61.8605 86.5916C63.4196 86.3301 65.059 86.2053 66.5667 86.6873C67.548 87.0018 68.4283 87.5367 69.095 88.328C69.2301 88.4887 69.36 88.6545 69.4882 88.8237C70.4746 89.5005 71.3618 90.355 72.0114 91.3327C72.2029 91.5566 72.3875 91.789 72.5619 92.0283C74.2457 94.3356 74.256 96.9642 74.0662 99.68C73.9739 101.011 73.2149 102.069 71.9345 102.485C70.743 102.871 69.2506 102.23 68.6557 101.148C68.2232 100.36 67.8334 99.5501 67.4522 98.7348C67.177 98.5776 66.9343 98.3537 66.7531 98.0768C65.5239 96.1985 63.4623 94.7355 61.3836 93.9801C61.093 93.8741 60.8331 93.7152 60.6194 93.5169C60.3083 93.522 59.9681 93.5408 59.6655 93.5613C61.1596 94.3732 62.0998 95.884 62.77 97.6068C63.0554 98.3383 63.2315 99.0954 63.3632 99.868C63.4435 100.341 63.5136 100.817 63.6076 101.288C63.6606 101.557 63.7204 101.823 63.7957 102.085C63.8247 102.187 63.8418 102.256 63.8504 102.298C63.8931 102.387 63.9324 102.476 63.9666 102.565C66.1599 103.866 68.7207 105.305 68.7549 108.171C68.7566 108.364 68.7463 108.55 68.7258 108.73C73.697 106.472 75.5159 98.9707 80.9657 100.536C91.638 103.604 84.7522 114.477 86.2189 116.85C87.4053 118.767 98.2263 121.886 100.071 121.375C101.045 121.105 101.907 120.405 102.486 119.41C101.703 119.42 100.926 119.384 100.165 119.306C97.5528 119.036 94.7868 118.426 92.6466 116.812C91.4431 115.905 90.8875 114.578 91.4499 113.175C91.5952 112.324 92.103 111.524 92.8483 111.088C93.4415 110.741 94.074 110.492 94.7287 110.323C92.1389 108.824 90.1524 106.325 89.6276 103.296C89.2276 100.993 89.2447 98.2101 90.0943 96.0088C90.6926 94.4586 91.626 93.4075 93.0158 92.5102C93.8671 91.9616 94.8039 91.5634 95.6553 91.0148C95.6809 90.9977 95.7083 90.9823 95.7356 90.9669C95.1681 90.7618 94.8057 90.6935 94.8057 90.6935C94.8057 90.6935 96.8502 85.2004 96.3237 78.0409C95.7972 70.8814 94.6398 69.1467 94.6398 69.1467C94.6398 69.1467 101.921 69.9824 108.509 63.845C115.716 57.1248 115.205 49.8816 112.697 47.0649Z" fill="#B9AEBF"/>
<path d="M89.479 57.0769C87.5832 58.0272 85.6105 58.8424 83.5779 59.4474C82.5762 59.8525 81.5009 60.1157 80.4564 60.2524C80.0906 60.3003 79.7179 60.3379 79.3418 60.3721C75.2203 60.948 71.1072 60.7207 67.0831 59.591C66.9464 59.5534 66.8182 59.5021 66.6934 59.4474C66.7019 59.7312 66.784 60.0063 66.9635 60.2388C70.1482 64.3885 75.9553 64.5064 80.7316 63.898C84.8737 63.3715 89.0551 61.4215 90.8808 57.576C90.356 57.5384 89.8791 57.3589 89.479 57.0769Z" fill="#B9AEBF"/>
<path d="M66.7513 83.0522C66.4966 83.0522 66.2761 82.8625 66.2436 82.6044C66.2077 82.3241 66.4077 82.0677 66.688 82.0318C66.753 82.0233 73.1841 81.1687 75.6953 77.7386C77.0868 75.838 77.4219 73.8691 76.6372 72.1942C75.8252 70.4629 73.9568 69.3434 71.6387 69.1981C66.9889 68.9076 62.8434 72.1241 62.8024 72.1566C62.5802 72.3309 62.2571 72.2933 62.0827 72.0711C61.9083 71.8489 61.9459 71.5259 62.1682 71.3516C62.3494 71.2097 66.6692 67.8599 71.7037 68.1761C74.4029 68.3453 76.5945 69.6852 77.5672 71.7601C78.504 73.7597 78.1245 76.1593 76.5244 78.3436C73.7516 82.1327 67.1 83.0129 66.818 83.0488C66.794 83.0505 66.7735 83.0522 66.7513 83.0522Z" fill="#150B3A"/>
<path d="M110.285 61.9753C109.523 61.9753 105.675 61.8197 102.805 58.7997C100.321 56.1865 100.882 53.3887 100.907 53.2708C100.946 53.0862 101.128 52.9682 101.312 53.0076C101.497 53.0469 101.615 53.228 101.576 53.4126C101.553 53.5186 101.073 55.9882 103.299 58.328C106.22 61.401 110.347 61.2916 110.388 61.2882C110.391 61.2882 110.396 61.2882 110.4 61.2882C110.583 61.2882 110.735 61.4335 110.742 61.6181C110.749 61.8061 110.602 61.965 110.412 61.9719C110.4 61.9753 110.355 61.9753 110.285 61.9753Z" fill="#150B3A"/>
<path d="M64.7756 82.8266C64.6594 82.8266 64.5465 82.7668 64.4816 82.6608C64.4046 82.5326 62.6029 79.4853 62.4473 76.2174C62.2917 72.9377 63.4661 70.791 63.5174 70.7004C63.6097 70.5364 63.8183 70.4765 63.9824 70.5688C64.1465 70.6611 64.2063 70.8696 64.114 71.0337C64.0969 71.0645 62.9841 73.1188 63.1311 76.185C63.2781 79.2785 65.0508 82.2797 65.0696 82.3104C65.1671 82.4728 65.1141 82.683 64.9517 82.7787C64.897 82.8112 64.8354 82.8266 64.7756 82.8266Z" fill="#150B3A"/>
<path d="M66.1586 98.4889C65.9552 98.4889 65.762 98.3675 65.6817 98.1658C65.6783 98.1573 65.068 96.7627 62.5397 95.3561C59.584 93.7119 57.6659 94.4144 57.5856 94.4451C57.3223 94.546 57.0249 94.4161 56.9223 94.1529C56.8197 93.8897 56.9462 93.5957 57.2078 93.4915C57.3052 93.4521 59.6267 92.5634 63.0388 94.4605C65.921 96.0636 66.6065 97.7164 66.6339 97.7847C66.7381 98.0479 66.6116 98.3453 66.3484 98.4513C66.2851 98.4769 66.2219 98.4889 66.1586 98.4889Z" fill="#150B3A"/>
<path d="M69.2196 86.8343C69.0641 86.8343 68.9102 86.7625 68.8094 86.6292C68.1769 85.7832 66.6947 85.5508 66.1785 85.532C65.8947 85.5217 65.6742 85.2841 65.6844 85.0004C65.6947 84.7167 65.9272 84.4997 66.2161 84.5065C66.3118 84.5099 68.5786 84.6056 69.6316 86.0139C69.8009 86.2412 69.7547 86.5626 69.5291 86.7318C69.435 86.8001 69.3273 86.8343 69.2196 86.8343Z" fill="#150B3A"/>
<path d="M56.4897 105.413C56.4897 105.413 52.387 100.962 53.4554 97.783C54.5238 94.6024 57.5855 93.5291 58.9633 95.0621C60.3412 96.5952 60.3412 100.583 62.331 101.964C64.3209 103.345 69.3741 103.497 69.2202 106.411C69.0664 109.325 66.7893 109.294 66.7893 109.294C66.7893 109.294 63.0199 109.745 60.2266 108.077C57.4316 106.409 56.4897 105.413 56.4897 105.413Z" fill="#ADACAE"/>
<path d="M54.2795 99.8852C54.5787 98.5709 55.5445 97.5164 56.6437 96.8071C57.4592 96.2807 58.5772 96.062 59.6046 96.1252C59.4234 95.7099 59.2165 95.3441 58.9635 95.0621C57.5857 93.5291 54.524 94.6024 53.4556 97.783C53.0111 99.1042 53.4607 100.644 54.1376 101.994C54.0607 101.28 54.1308 100.542 54.2795 99.8852Z" fill="white"/>
<path d="M67.1126 103.832C67.1587 104.871 66.6151 106.059 65.892 106.781C65.2219 107.453 63.9329 108.121 62.9448 108.003C61.9174 107.882 60.8353 107.952 59.8387 107.646C59.7413 107.655 59.6438 107.66 59.5464 107.662C59.7601 107.795 59.9857 107.933 60.225 108.075C63.0183 109.743 66.7878 109.292 66.7878 109.292C66.7878 109.292 69.0665 109.321 69.2186 106.409C69.287 105.13 68.3519 104.384 67.1126 103.832Z" fill="#827A8C"/>
<path d="M65.5839 109.865C64.1838 109.865 61.876 109.661 59.9614 108.518C57.1391 106.833 56.1561 105.807 56.1151 105.765L56.11 105.759C55.9339 105.568 51.814 101.047 52.9662 97.6189C53.6175 95.6825 55.0364 94.2691 56.6707 93.9307C57.722 93.7136 58.6964 94.0008 59.3409 94.7203C60.0144 95.4689 60.3649 96.6362 60.7375 97.8736C61.1803 99.3417 61.6367 100.861 62.6197 101.541C63.2197 101.957 64.1736 102.266 65.1839 102.592C67.372 103.298 69.8508 104.1 69.7277 106.438C69.5875 109.099 67.7806 109.803 66.8113 109.808C66.6865 109.82 66.2318 109.865 65.5839 109.865ZM56.8638 105.062C56.9151 105.115 57.8758 106.077 60.4879 107.638C63.0932 109.193 66.6916 108.79 66.7275 108.785L66.76 108.781H66.7942C66.9737 108.781 68.584 108.706 68.7071 106.383C68.7823 104.944 67.1652 104.308 64.8728 103.568C63.7872 103.218 62.7633 102.886 62.0384 102.384C60.7615 101.499 60.252 99.8066 59.7597 98.1676C59.4212 97.043 59.1015 95.9816 58.5819 95.4039C58.1801 94.9561 57.5767 94.7904 56.8809 94.9339C55.9253 95.1322 54.58 96.0397 53.9406 97.9454C52.9919 100.769 56.7322 104.917 56.8638 105.062Z" fill="#150B3A"/>
<path d="M75.2526 102.912C75.0953 102.912 74.9551 102.804 74.9192 102.645C74.9056 102.582 73.4474 96.2208 69.7122 91.2815C66.0829 86.4823 60.5733 88.241 60.3408 88.3179C60.1613 88.3777 59.9681 88.2803 59.9083 88.1008C59.8484 87.9214 59.9459 87.7282 60.1237 87.6684C60.1852 87.6479 66.3274 85.6722 70.2575 90.8679C74.085 95.9286 75.5723 102.43 75.5876 102.495C75.6287 102.68 75.5124 102.862 75.3295 102.903C75.3022 102.91 75.2782 102.912 75.2526 102.912Z" fill="#150B3A"/>
<path d="M86.4632 104.789C86.3555 104.789 86.2495 104.737 86.1829 104.643C86.0735 104.49 86.1111 104.276 86.2649 104.166C86.2923 104.148 89.0052 102.252 93.7251 100.118C98.4826 97.9658 101.855 97.9111 101.996 97.9094C102.192 97.9077 102.339 98.0598 102.341 98.2478C102.343 98.4359 102.19 98.5914 102.002 98.5931C101.97 98.5931 98.6211 98.6529 94.0072 100.74C89.3454 102.849 86.6837 104.707 86.6581 104.725C86.6 104.768 86.5299 104.789 86.4632 104.789Z" fill="#150B3A"/>
<path d="M99.5219 121.943C97.8381 121.943 94.6106 121.092 92.7472 120.514C90.9386 119.954 86.6375 118.501 85.7845 117.12C85.2477 116.252 85.5486 114.763 85.9298 112.878C86.7675 108.737 87.9128 103.066 80.827 101.029C77.885 100.184 76.0969 102.29 74.025 104.732C72.0078 107.11 69.7205 109.805 65.9579 109.871C62.4227 109.93 58.8773 108.475 56.2241 105.869C54.0736 103.756 52.7881 101.189 52.7881 99.0033C52.7881 95.1663 56.643 93.6452 57.9217 93.247C57.9405 92.0301 58.255 88.4785 61.1765 86.4379C63.6194 84.7322 65.4126 84.4997 66.2827 84.51L66.4315 83.0709C64.5818 83.1359 59.3388 82.7393 57.1661 76.4139C56.6413 74.886 55.4224 69.4442 61.7834 63.5973C66.6862 59.0904 69.1854 55.2944 69.2111 55.2568L69.353 55.038L86.9264 54.1134L87.082 54.3903C87.1401 54.4911 88.5487 56.8976 91.6702 57.0702C96.1457 57.3197 101.544 53.317 103.028 49.8372C104.895 45.4568 108.568 44.7372 111.146 45.4533C112.738 45.8943 114.068 47.5607 114.615 49.803C115.037 51.5327 115.873 57.6838 108.854 64.2228C103.426 69.2784 97.6039 69.7313 95.4397 69.7039C95.8465 70.8268 96.4824 73.2521 96.8312 78.0068C97.2722 83.9938 95.9628 88.7759 95.4653 90.3398C96.1508 90.5483 97.3645 91.0166 98.621 91.9651C100.342 93.2675 102.469 95.7611 102.825 100.244C103.358 106.963 101.532 110.362 100.696 111.538C101.652 112.201 103.635 113.842 103.748 116.111C103.884 118.889 102.43 121.258 100.211 121.873C100.028 121.921 99.7954 121.943 99.5219 121.943ZM79.5381 99.8117C80.0321 99.8117 80.5535 99.8851 81.1091 100.044C89.1043 102.343 87.7983 108.805 86.935 113.081C86.6256 114.611 86.3333 116.057 86.6563 116.58C87.6649 118.21 98.221 121.357 99.9339 120.882C101.688 120.396 102.833 118.453 102.72 116.159C102.604 113.794 99.7151 112.122 99.686 112.105L99.1048 111.775L99.5732 111.3C99.6005 111.273 102.426 108.248 101.799 100.323C101.18 92.5223 94.9696 91.2473 94.7046 91.1977L94.1097 91.0832L94.32 90.5141C94.3405 90.4594 96.3183 85.0313 95.8072 78.0786C95.3046 71.2473 94.2157 69.4424 94.2037 69.4254L93.6362 68.5212L94.6926 68.6375C94.7627 68.6443 101.83 69.3604 108.153 63.4708C114.762 57.3129 114.006 51.6386 113.617 50.0457C113.157 48.164 112.104 46.783 110.869 46.4412C108.692 45.8379 105.575 46.4703 103.968 50.2389C103.158 52.1411 101.295 54.1903 98.9885 55.7217C96.4978 57.3761 93.8738 58.2187 91.6104 58.0922C88.5453 57.923 86.8803 55.9165 86.3623 55.1679L69.9188 56.0345C69.3102 56.9198 66.8554 60.3243 62.474 64.351C56.5712 69.7774 57.6584 74.7014 58.1319 76.0806C60.4927 82.9513 66.6588 82.0471 66.9187 82.0061L67.5785 81.9002L67.1871 85.7149L66.6092 85.5662C66.5973 85.5645 64.7784 85.1731 61.7612 87.2804C58.7371 89.3929 58.9474 93.5649 58.9491 93.6059L58.9747 94.0417L58.549 94.1374C58.3559 94.1818 53.8121 95.2535 53.8121 99.0067C53.8121 100.894 55.0104 103.244 56.9404 105.141C59.3491 107.506 62.5441 108.851 65.7374 108.851C65.8041 108.851 65.8708 108.851 65.9374 108.849C69.235 108.791 71.271 106.392 73.2403 104.072C75.0216 101.97 76.8542 99.8117 79.5381 99.8117Z" fill="#150B3A"/>
<path d="M87.2548 68.3247C86.3898 69.1912 86.3111 70.5499 87.0171 71.507L86.2906 72.2351C86.1504 72.377 86.1504 72.606 86.2906 72.7478C86.4308 72.8897 86.6616 72.8897 86.8017 72.7478L87.5283 72.0198C88.4822 72.7273 89.8395 72.6487 90.7028 71.7822C91.6533 70.8302 91.6533 69.2783 90.7028 68.3264C89.754 67.371 88.2069 67.371 87.2548 68.3247ZM90.1934 71.2678C89.6121 71.8506 88.7129 71.9275 88.0497 71.4968L88.3369 71.2096C88.477 71.0678 88.477 70.8388 88.3369 70.6969C88.1967 70.5551 87.9659 70.5551 87.8257 70.6969L87.5385 70.984C87.1095 70.3192 87.1847 69.4202 87.7676 68.8374C88.4377 68.1674 89.525 68.1674 90.1951 68.8374C90.8635 69.5074 90.8618 70.5978 90.1934 71.2678ZM87.995 72.9581C88.1351 73.0999 88.1351 73.3289 87.995 73.4708L86.4616 75.009C86.3214 75.1508 86.0906 75.1508 85.9504 75.009C85.8102 74.8671 85.8102 74.6381 85.9504 74.4963L87.4838 72.9581C87.624 72.8179 87.8514 72.8179 87.995 72.9581ZM84.0324 73.0914C83.8922 72.9495 83.8922 72.7205 84.0324 72.5786L85.5658 71.0421C85.706 70.9003 85.9367 70.9003 86.0769 71.0421C86.2171 71.184 86.2171 71.413 86.0769 71.5549L84.5435 73.0914C84.4033 73.2315 84.1743 73.2315 84.0324 73.0914Z" fill="#150B3A"/>
<path d="M53.4603 100.73C53.2928 100.73 53.1287 100.648 53.0295 100.495C52.8757 100.258 52.9423 99.94 53.18 99.7861L58.9888 96.0107C59.2264 95.8569 59.5444 95.9235 59.6982 96.1611C59.8521 96.3987 59.7854 96.7166 59.5478 96.8704L53.739 100.646C53.6518 100.704 53.556 100.73 53.4603 100.73Z" fill="#150B3A"/>
<path d="M54.9818 103.242C54.8091 103.242 54.6416 103.155 54.5441 102.998C54.3954 102.757 54.4706 102.44 54.7117 102.292L60.3666 98.8102C60.6077 98.6615 60.9239 98.7367 61.0726 98.9777C61.2214 99.2187 61.1462 99.5349 60.9051 99.6836L55.2501 103.165C55.1664 103.218 55.0741 103.242 54.9818 103.242Z" fill="#150B3A"/>
<path d="M56.9734 105.848C56.8161 105.848 56.6588 105.775 56.5597 105.638C56.3921 105.409 56.4434 105.089 56.6708 104.922L61.6813 101.263C61.9104 101.095 62.23 101.146 62.3976 101.374C62.5651 101.603 62.5138 101.922 62.2864 102.09L57.276 105.749C57.1836 105.817 57.0777 105.848 56.9734 105.848Z" fill="#150B3A"/>
<path d="M59.5752 107.843C59.435 107.843 59.2949 107.785 59.1923 107.672C59.0043 107.462 59.0213 107.137 59.2333 106.947L64.0438 102.645C64.2558 102.457 64.5789 102.474 64.7686 102.686C64.9584 102.898 64.9396 103.221 64.7276 103.411L59.9171 107.713C59.8197 107.8 59.6966 107.843 59.5752 107.843Z" fill="#150B3A"/>
<path d="M62.4827 109.068C62.3527 109.068 62.2228 109.019 62.1237 108.921C61.9219 108.723 61.9185 108.398 62.1168 108.197L66.7461 103.473C66.9444 103.271 67.2692 103.267 67.4709 103.466C67.6726 103.664 67.6761 103.989 67.4778 104.19L62.8485 108.914C62.7493 109.017 62.616 109.068 62.4827 109.068Z" fill="#150B3A"/>
<path d="M65.5442 109.682C65.4382 109.682 65.3305 109.649 65.2399 109.581C65.0125 109.414 64.9646 109.092 65.1322 108.863L68.2879 104.594C68.4554 104.367 68.7768 104.319 69.0059 104.486C69.2332 104.654 69.2811 104.975 69.1136 105.204L65.9579 109.473C65.857 109.61 65.7014 109.682 65.5442 109.682Z" fill="#150B3A"/>
<path d="M74.8582 61.1332C91.6003 61.1332 105.172 47.564 105.172 30.8255C105.172 14.087 91.6003 0.517822 74.8582 0.517822C58.1161 0.517822 44.5439 14.087 44.5439 30.8255C44.5439 47.564 58.1161 61.1332 74.8582 61.1332Z" fill="#E3FAFF"/>
<path d="M74.7937 61.6517C68.3319 61.6517 62.053 59.623 56.7262 55.7501C50.0678 50.9082 45.6932 43.7624 44.4094 35.6304C43.1256 27.4985 45.0846 19.3529 49.9293 12.6959C54.7723 6.03887 61.9179 1.66525 70.0516 0.379994C86.8422 -2.27084 102.658 9.23149 105.31 26.0167C107.961 42.8036 96.4563 58.6163 79.6675 61.2671C78.0383 61.5252 76.4109 61.6517 74.7937 61.6517ZM74.8775 1.02604C73.3372 1.02604 71.7799 1.14568 70.2123 1.3935C62.3487 2.63431 55.4407 6.86266 50.7584 13.2992C46.0761 19.7357 44.1803 27.6096 45.4214 35.4715C46.6625 43.3334 50.8918 50.2399 57.3297 54.9212C63.7676 59.6025 71.6432 61.4962 79.5068 60.2553C95.7383 57.6934 106.858 42.4071 104.296 26.1773C101.981 11.5183 89.2765 1.02604 74.8775 1.02604Z" fill="#150B3A"/>
<path d="M88.9302 18.1813C94.1065 14.5016 97.2194 13.4317 97.7032 13.6249C98.187 13.818 103.888 26.086 100.179 34.5666C97.2536 41.2544 94.9988 40.6835 93.5355 40.9519C92.9218 41.0647 92.2876 40.9536 91.6876 40.7741C89.9644 40.2614 88.4173 39.1812 87.3421 37.7421C86.3215 36.3748 85.7078 34.6897 84.4462 33.5394C82.2239 31.5141 80.4528 31.0646 81.6307 28.1369C82.5794 25.7835 84.1419 21.5842 88.9302 18.1813Z" fill="url(#paint0_linear)"/>
<path d="M93.0174 41.4234C92.5815 41.4234 92.108 41.3447 91.5661 41.1824C89.754 40.6423 88.1317 39.5109 87.0001 37.9949C86.5949 37.4531 86.253 36.8652 85.9231 36.296C85.3914 35.3816 84.8906 34.5185 84.1589 33.852C83.723 33.4538 83.2939 33.1102 82.9161 32.8077C81.3246 31.531 80.1741 30.6098 81.2357 27.9743L81.3348 27.7265C82.3144 25.2825 83.9555 21.1892 88.6805 17.8308C93.344 14.5168 97.0091 12.8863 97.8604 13.2247C97.9681 13.2674 98.298 13.399 99.2571 15.7354C100.351 18.3965 103.676 27.6325 100.568 34.7356C97.8775 40.885 95.6107 41.1362 94.1115 41.302C93.932 41.3225 93.7611 41.3413 93.6089 41.3687C93.4209 41.4063 93.2226 41.4234 93.0174 41.4234ZM88.9301 18.1811L89.1779 18.5298C84.6564 21.7446 83.0751 25.6893 82.1297 28.0478L82.0306 28.2974C81.2066 30.3432 81.9109 30.9072 83.4529 32.1446C83.8409 32.4556 84.2803 32.8077 84.7367 33.2247C85.5641 33.9802 86.1231 34.9407 86.6633 35.8704C86.9813 36.4191 87.3112 36.9848 87.6856 37.4873C88.7078 38.8563 90.1729 39.8783 91.8105 40.3654C92.4755 40.5637 92.9986 40.6149 93.4585 40.5312C93.6397 40.497 93.8243 40.4782 94.0209 40.456C95.4022 40.3022 97.2963 40.0937 99.7887 34.3955C101.643 30.1552 101.025 24.9954 100.178 21.4148C99.2519 17.4958 97.8758 14.5954 97.4963 14.0297C96.8433 14.0724 93.9611 15.1304 89.1779 18.5298L88.9301 18.1811Z" fill="#150B3A"/>
<path d="M93.6141 37.0445C92.8379 36.4737 91.0892 33.9134 88.9369 32.7888C86.7847 31.666 85.2444 32.0556 85.029 30.0474C84.8136 28.0392 86.1368 25.6396 88.7745 22.8726C91.414 20.1055 94.8415 18.3827 95.1372 19.0288C95.4329 19.6748 97.0279 24.0194 96.6621 29.0254C96.2962 34.0314 94.3919 37.6137 93.6141 37.0445Z" fill="#5C13A1"/>
<path d="M94.0449 36.9985C94.0449 36.9985 91.7132 33.5461 89.6362 32.4625C87.5591 31.3789 86.0753 31.7549 85.8668 29.8185C85.6582 27.8804 86.9352 25.5662 89.4806 22.8966C92.026 20.227 95.3322 18.5657 95.6176 19.1895C95.9031 19.8116 97.4417 24.0024 97.0878 28.8323C96.7339 33.6623 95.2911 36.4293 94.0449 36.9985Z" fill="#FF4DD3"/>
<path d="M89.4826 22.8965C89.9099 22.4487 90.3578 22.03 90.8091 21.6454C91.0057 21.6113 91.1373 21.6352 91.1784 21.7275C91.3903 22.1924 92.5408 25.3252 92.2776 28.9331C92.1254 31.0148 91.7015 32.5803 91.192 33.6178C90.6843 33.1461 90.1544 32.7307 89.6381 32.4624C87.5611 31.3788 86.0773 31.7548 85.8687 29.8184C85.6602 27.8803 86.9371 25.5644 89.4826 22.8965Z" fill="url(#paint1_linear)"/>
<path d="M57.3626 23.1633C51.3042 21.2576 48.0135 21.1978 47.6118 21.5311C47.21 21.8627 45.5672 35.2912 51.7094 42.2165C56.5523 47.6771 58.5234 46.4397 59.997 46.2449C60.6158 46.1628 61.185 45.862 61.6996 45.5082C63.18 44.4896 64.3202 42.9856 64.8997 41.285C65.4502 39.6699 65.5135 37.877 66.3596 36.3952C67.8486 33.7837 69.3957 32.8112 67.3734 30.3894C65.7459 28.441 62.9663 24.9271 57.3626 23.1633Z" fill="url(#paint2_linear)"/>
<path d="M58.2156 46.9283C56.7592 46.9283 54.6804 46.2088 51.3897 42.5C46.2441 36.6993 46.5621 26.889 46.7826 24.0194C46.9758 21.5019 47.2493 21.2763 47.3382 21.201C48.0442 20.6165 52.0325 21.0387 57.4908 22.7546C63.0227 24.4945 65.8434 27.8837 67.5289 29.9073L67.6999 30.1124C69.5205 32.2915 68.7102 33.5237 67.5905 35.2277C67.3238 35.6328 67.0229 36.0908 66.7306 36.6036C66.24 37.4632 66.0297 38.4374 65.8057 39.4715C65.6673 40.1141 65.522 40.7789 65.3049 41.4198C64.6963 43.2093 63.5014 44.7868 61.9423 45.8584C61.2551 46.3301 60.6551 46.5865 60.0533 46.6668C59.8995 46.6873 59.732 46.7215 59.5559 46.7574C59.1695 46.8377 58.7319 46.9283 58.2156 46.9283ZM47.9348 21.8522C47.7468 22.5068 47.3314 25.6909 47.6579 29.7056C47.957 33.3733 48.9571 38.4716 52.029 41.9343C56.1557 46.5865 58.0208 46.2036 59.3832 45.9233C59.5764 45.884 59.7576 45.8464 59.9405 45.8225C60.4038 45.761 60.8859 45.5491 61.4568 45.156C62.8654 44.1886 63.9424 42.7632 64.4929 41.1464C64.6946 40.5533 64.8348 39.9124 64.9681 39.292C65.1955 38.2409 65.4314 37.1556 65.9852 36.1814C66.2912 35.6465 66.6007 35.1747 66.8742 34.7594C67.9597 33.1067 68.4554 32.353 67.0417 30.661L66.8708 30.4542C65.245 28.5024 62.5253 25.2346 57.2327 23.5699C51.6376 21.8095 48.5673 21.6899 47.9348 21.8522Z" fill="#150B3A"/>
<path d="M58.718 42.553C59.2804 41.772 60.1556 38.7964 61.8566 37.0634C63.5575 35.3303 65.1439 35.2295 64.7285 33.252C64.3148 31.2746 62.3164 29.3997 58.9539 27.5795C55.5913 25.7593 51.798 25.1765 51.7176 25.8823C51.6373 26.5882 51.4561 31.2114 53.3468 35.8619C55.2375 40.5123 58.1555 43.3341 58.718 42.553Z" fill="#5C13A1"/>
<path d="M58.2941 42.6421C58.2941 42.6421 59.448 38.6394 61.0908 36.9696C62.7336 35.2998 64.2619 35.2007 63.8619 33.2933C63.4636 31.3859 61.5353 29.576 58.2907 27.8207C55.0461 26.0655 51.3895 25.5032 51.3091 26.1834C51.2305 26.8636 51.0579 31.3244 52.8802 35.8108C54.7025 40.2972 56.9333 42.4832 58.2941 42.6421Z" fill="#FF4DD3"/>
<path d="M58.2905 27.8187C57.7469 27.5247 57.1913 27.2649 56.6426 27.0376C56.446 27.0667 56.328 27.1299 56.3161 27.229C56.2562 27.7366 56.128 31.0711 57.4905 34.4227C58.2769 36.3557 59.1624 37.7144 59.9675 38.5451C60.3043 37.94 60.6821 37.3811 61.0889 36.9675C62.7301 35.296 64.26 35.1986 63.86 33.2912C63.4617 31.3839 61.5351 29.5739 58.2905 27.8187Z" fill="url(#paint3_linear)"/>
<path d="M79.8685 22.1046L78.3813 28.3354L79.379 28.5735L80.8661 22.3426L79.8685 22.1046Z" fill="#150B3A"/>
<path d="M80.7577 22.8558C82.0087 22.8558 83.0228 21.8419 83.0228 20.5912C83.0228 19.3405 82.0087 18.3267 80.7577 18.3267C79.5068 18.3267 78.4927 19.3405 78.4927 20.5912C78.4927 21.8419 79.5068 22.8558 80.7577 22.8558Z" fill="url(#paint4_linear)"/>
<path d="M80.7625 23.3683C79.8274 23.3683 78.9145 22.8983 78.3914 22.0454C77.5897 20.7397 77.9983 19.0271 79.3043 18.2238C79.9368 17.8359 80.6822 17.7162 81.4036 17.8889C82.125 18.0615 82.7369 18.5041 83.125 19.1365C83.9267 20.4406 83.5182 22.1548 82.2121 22.9581C81.7608 23.2367 81.2582 23.3683 80.7625 23.3683ZM80.7557 18.8391C80.4428 18.8391 80.1266 18.9229 79.8411 19.0989C79.4428 19.3433 79.1624 19.7296 79.0547 20.1842C78.947 20.6388 79.0205 21.1105 79.2667 21.5088C79.7727 22.3326 80.8548 22.5889 81.6771 22.0847C82.0754 21.8403 82.3557 21.4541 82.4634 20.9994C82.5711 20.5448 82.4976 20.0731 82.2515 19.6749C81.9198 19.1365 81.3437 18.8391 80.7557 18.8391Z" fill="#150B3A"/>
<path d="M67.1033 24.1205L66.2275 24.6543L69.5625 30.1235L70.4382 29.5898L67.1033 24.1205Z" fill="#150B3A"/>
<path d="M65.7944 25.2179C67.0453 25.2179 68.0594 24.204 68.0594 22.9533C68.0594 21.7026 67.0453 20.6887 65.7944 20.6887C64.5434 20.6887 63.5293 21.7026 63.5293 22.9533C63.5293 24.204 64.5434 25.2179 65.7944 25.2179Z" fill="url(#paint5_linear)"/>
<path d="M65.794 25.7321C65.5786 25.7321 65.3581 25.7064 65.1392 25.6534C63.6503 25.2928 62.7323 23.7871 63.0947 22.2984C63.4554 20.8098 64.9615 19.892 66.4504 20.2543C67.9394 20.615 68.8574 22.1207 68.4949 23.6093C68.1855 24.8775 67.0453 25.7321 65.794 25.7321ZM65.794 21.2012C65.0042 21.2012 64.2845 21.7396 64.0913 22.5411C63.864 23.4794 64.4418 24.4297 65.382 24.657C66.3205 24.8843 67.271 24.3067 67.4983 23.3666C67.7257 22.4283 67.1479 21.4781 66.2077 21.2508C66.0692 21.2166 65.9307 21.2012 65.794 21.2012Z" fill="#150B3A"/>
<path d="M79.6012 60.8579C87.6409 59.5898 94.8292 54.2146 98.9764 48.1934C98.8038 47.3662 98.12 47.4944 97.8977 46.6979C97.7747 46.257 99.8466 45.44 99.4807 45.1734C98.373 44.3684 96.6652 42.9994 96.1626 41.8731C91.6889 31.8321 83.0252 25.5169 74.2402 26.903C65.4432 28.2908 59.1421 36.9868 57.9916 47.9353C57.8942 48.8651 56.3095 51.2014 55.6342 51.897C55.1162 52.4303 57.8001 52.2628 57.8309 53.0199C57.8634 53.8454 57.4258 54.2881 57.5164 55.129C63.3183 59.5795 71.5615 62.1278 79.6012 60.8579Z" fill="url(#paint6_linear)"/>
<path d="M75.3894 61.6114C68.9669 61.6114 62.4281 59.4357 57.2569 55.4671L57.1116 55.356L57.0911 55.1749C57.0347 54.6485 57.1509 54.2502 57.2552 53.8999C57.3373 53.623 57.4091 53.3803 57.4039 53.0795C57.2535 52.953 56.6586 52.8368 56.3663 52.7787C55.7389 52.6556 55.2842 52.5685 55.1628 52.1788C55.1337 52.0848 55.091 51.8404 55.3252 51.5977C55.9765 50.926 57.4809 48.6734 57.5629 47.8889C58.7647 36.4618 65.4385 27.8564 74.1688 26.4789C82.8872 25.103 91.8808 31.2182 96.5494 41.6968C96.8964 42.4762 98.0247 43.5871 99.7273 44.8245C99.8709 44.9287 99.9512 45.0894 99.9461 45.2603C99.9359 45.6312 99.57 45.8636 99.0196 46.2174C98.8247 46.3422 98.4845 46.5592 98.346 46.6943C98.4213 46.8652 98.5358 46.9558 98.6965 47.0788C98.9392 47.2668 99.2709 47.5249 99.3905 48.1026L99.4281 48.282L99.3239 48.4324C94.6792 55.1749 87.1455 60.0971 79.6631 61.2781C78.2579 61.502 76.8271 61.6114 75.3894 61.6114ZM79.5349 60.4355L79.6016 60.8577L79.5349 60.4355C86.7318 59.299 93.9851 54.5869 98.5084 48.1179C98.4418 47.9624 98.3324 47.8787 98.1768 47.7573C97.9477 47.5796 97.6332 47.3352 97.4862 46.8122C97.3374 46.2841 97.905 45.9217 98.5631 45.5013C98.6657 45.4363 98.7922 45.3543 98.9033 45.2791C97.6759 44.3579 96.2502 43.1222 95.7716 42.0489C91.2636 31.9292 82.6376 26.014 74.3056 27.3283C65.9616 28.646 59.5767 36.9455 58.416 47.9829C58.3168 48.9332 56.9971 50.938 56.221 51.8797C56.327 51.9019 56.4398 51.9241 56.5321 51.9429C57.2877 52.0899 58.2296 52.2745 58.2587 53.006C58.2775 53.4692 58.1715 53.8281 58.0775 54.146C58.0005 54.4058 57.9322 54.6365 57.9339 54.9117C64.0607 59.5417 72.1209 61.6063 79.5349 60.4355Z" fill="#150B3A"/>
<path d="M72.5673 40.6815C71.5673 38.017 69.1979 39.8953 66.5328 40.8952C63.8677 41.895 61.9155 41.6386 62.9156 44.3031C63.9156 46.9676 66.8867 48.3161 69.5518 47.3163C72.2169 46.3165 73.5673 43.346 72.5673 40.6815Z" fill="#150B3A"/>
<path d="M70.3379 43.9784C69.7191 44.6962 68.9669 45.0227 69.5071 45.3508C70.049 45.679 70.8593 45.3286 71.3175 44.5714C71.7756 43.8143 71.7089 42.9341 71.167 42.6077C70.6268 42.2795 70.9568 43.2606 70.3379 43.9784Z" fill="white"/>
<path d="M90.0958 39.7758C90.2411 36.9335 88.3384 37.3146 85.4956 37.1694C82.6527 37.0241 79.9466 36.4088 79.8013 39.2511C79.656 42.0933 81.8441 44.5151 84.687 44.6604C87.5281 44.8057 89.9505 42.618 90.0958 39.7758Z" fill="#150B3A"/>
<path d="M88.0219 41.4455C88.374 40.6337 88.1894 39.7706 87.6082 39.5194C87.0269 39.2681 87.3227 40.1774 86.9705 40.9909C86.6184 41.8044 85.7534 42.2112 86.3329 42.4625C86.9141 42.7137 87.6697 42.2591 88.0219 41.4455Z" fill="white"/>
<path d="M98.7225 48.4204C98.6849 48.1332 98.5054 47.8837 98.2455 47.7555C97.4899 47.3795 96.3993 46.7967 96.36 46.5472C96.348 46.4703 96.4318 46.3934 96.5754 46.3147C95.524 44.327 92.4076 42.7154 90.4588 43.9493C87.1647 46.0379 84.1337 46.8463 82.0738 45.2055C78.3779 42.2607 78.6976 41.2694 76.7095 41.6147C74.723 41.9582 75.3795 43.129 72.6717 47.0855C71.1827 49.2595 68.7963 48.9365 64.3465 48.0717C62.0814 47.6308 59.3924 50.2269 59.2557 52.206C59.4163 52.2368 59.5206 52.2847 59.5326 52.3616C59.5719 52.6145 58.6847 53.5306 58.0812 54.1203C57.8915 54.3048 57.806 54.5715 57.8539 54.8312C57.8573 54.8466 57.859 54.862 57.8624 54.8774C58.8266 55.5747 61.9173 57.6855 66.5722 59.6817C70.8237 61.5053 76.024 60.9823 78.3694 60.6046C79.0668 60.4952 79.5301 60.3944 79.6703 60.3619C79.8122 60.3483 80.284 60.3021 80.9815 60.191C83.3303 59.8287 88.4382 58.7246 91.9204 55.679C95.7326 52.3462 98.0233 49.386 98.7259 48.4255C98.7225 48.4238 98.7225 48.4221 98.7225 48.4204Z" fill="white"/>
<path d="M75.7035 37.6342C76.5061 37.6342 77.1566 36.9838 77.1566 36.1815C77.1566 35.3792 76.5061 34.7288 75.7035 34.7288C74.901 34.7288 74.2505 35.3792 74.2505 36.1815C74.2505 36.9838 74.901 37.6342 75.7035 37.6342Z" fill="#D4E8FF"/>
<path d="M75.1296 33.4178C75.6112 33.4178 76.0015 33.0276 76.0015 32.5462C76.0015 32.0648 75.6112 31.6746 75.1296 31.6746C74.6481 31.6746 74.2578 32.0648 74.2578 32.5462C74.2578 33.0276 74.6481 33.4178 75.1296 33.4178Z" fill="#D4E8FF"/>
<path d="M79.6564 46.9285C79.7982 47.8257 77.9999 49.0529 77.8392 49.0785C77.6768 49.1041 75.5895 48.4923 75.4476 47.5933C75.3057 46.696 76.2237 46.3918 77.3862 46.2089C78.5486 46.026 79.5145 46.0312 79.6564 46.9285Z" fill="#150B3A"/>
<path d="M76.1966 51.3584C76.0718 51.3584 75.9641 51.2678 75.9436 51.1413C75.9214 51.0012 76.0171 50.8696 76.1573 50.8491C77.0719 50.7038 77.6993 49.8424 77.5557 48.9263C77.5335 48.7862 77.6292 48.6546 77.7694 48.6341C77.9078 48.6118 78.0412 48.7076 78.0617 48.8477C78.2497 50.0424 77.4326 51.167 76.2377 51.355C76.224 51.3584 76.2103 51.3584 76.1966 51.3584Z" fill="#150B3A"/>
<path d="M79.7214 50.779C78.6615 50.779 77.7264 50.0065 77.5555 48.928C77.5332 48.7879 77.629 48.6563 77.7691 48.6358C77.9076 48.6136 78.0409 48.7093 78.0615 48.8494C78.1315 49.2921 78.3692 49.6818 78.7333 49.9467C79.0974 50.2099 79.5402 50.3175 79.9846 50.2475C80.1231 50.2253 80.2564 50.321 80.277 50.4611C80.2992 50.6013 80.2034 50.7329 80.0633 50.7534C79.9487 50.7705 79.8342 50.779 79.7214 50.779Z" fill="#150B3A"/>
<path d="M77.9777 51.3584C77.588 51.3584 77.217 51.1756 76.9538 50.8474C76.8649 50.7363 76.8837 50.5757 76.9931 50.4868C77.1042 50.3979 77.2649 50.4167 77.3538 50.5261C77.5469 50.7671 77.8273 50.8816 78.1042 50.8338C78.3726 50.7876 78.5829 50.5979 78.682 50.3159C78.7282 50.1826 78.8735 50.1108 79.0085 50.1587C79.1419 50.2048 79.2137 50.3518 79.1658 50.4851C79.0068 50.9431 78.6427 51.261 78.1914 51.3396C78.1213 51.3533 78.0495 51.3584 77.9777 51.3584Z" fill="#150B3A"/>
<path d="M74.7937 61.6517C68.3319 61.6517 62.053 59.623 56.7262 55.7501C50.0678 50.9082 45.6932 43.7624 44.4094 35.6304C43.1256 27.4985 45.0846 19.3529 49.9293 12.6959C54.7723 6.03887 61.9179 1.66525 70.0516 0.379994C86.8422 -2.27084 102.658 9.23149 105.31 26.0167C107.961 42.8036 96.4563 58.6163 79.6675 61.2671C78.0383 61.5252 76.4109 61.6517 74.7937 61.6517ZM74.8775 1.02604C73.3372 1.02604 71.7799 1.14568 70.2123 1.3935C62.3487 2.63431 55.4407 6.86266 50.7584 13.2992C46.0761 19.7357 44.1803 27.6096 45.4214 35.4715C46.6625 43.3334 50.8918 50.2399 57.3297 54.9212C63.7676 59.6025 71.6432 61.4962 79.5068 60.2553C95.7383 57.6934 106.858 42.4071 104.296 26.1773C101.981 11.5183 89.2765 1.02604 74.8775 1.02604Z" fill="#150B3A"/>
<path d="M160.543 46.0314C155.609 44.7099 149.235 45.7627 145.143 48.8825L145.608 53.4132L137.441 60.1392L142.535 66.2359L137.285 69.6315L141.869 78.042L130.605 97.2033L138.086 79.1989L130.783 69.2467L138.288 65.672L134.974 59.8899L142.19 52.4306L142.024 51.8449C140.723 45.6563 131.639 40.4333 125.153 39.8742C107.569 38.3591 98.001 58.2223 102.849 73.5621C105.46 81.8176 109.963 89.427 115.103 96.4506C119.409 102.332 130.916 115.227 130.965 115.198C130.999 115.242 146.25 107.047 152.32 102.985C159.567 98.1376 166.418 92.5225 171.711 85.6538C181.54 72.8965 177.587 50.5985 160.543 46.0314Z" fill="url(#paint7_linear)"/>
<path d="M37.1185 61.03C40.1702 58.0816 40.4127 53.2251 37.5947 49.9838C35.7248 47.8332 32.9614 46.9174 30.3379 47.313L24.6757 40.7998C25.4294 38.2536 24.9073 35.3904 23.0374 33.2398C20.2216 30.0007 15.3786 29.5657 12.0385 32.1819L12.032 32.171L1.31711 41.4927L1.32585 41.5058C-0.351829 43.2084 -0.461053 45.9426 1.13361 47.7742C2.39406 49.2232 4.36009 49.6975 6.0749 49.1249L11.9861 47.4857L21.9604 58.958L19.5182 64.5882C18.7143 66.2099 18.9109 68.2229 20.1713 69.6719C21.766 71.5057 24.4857 71.7767 26.4036 70.3495L26.4167 70.3582L37.1316 61.0343L37.1185 61.03Z" fill="url(#paint8_linear)"/>
<path opacity="0.08" d="M37.1032 61.0364C37.1032 61.0364 24.2869 71.5798 19.1424 65.6655C18.8453 67.0403 19.1774 68.5331 20.1691 69.6761C21.7638 71.5099 24.4835 71.7809 26.4014 70.3537L26.4145 70.3624L37.1272 61.0408L37.1032 61.0364Z" fill="black"/>
<path d="M19.5332 42.3299L18.1264 40.7103C17.9647 40.5245 17.9844 40.2426 18.1701 40.0809L19.7888 38.6733C19.9744 38.5116 19.9941 38.2296 19.8324 38.0439L18.4256 36.4243C18.264 36.2385 17.9822 36.2189 17.7965 36.3806L16.1778 37.7881C15.9921 37.9499 15.7103 37.9302 15.5487 37.7444L14.1703 36.1598C14.0086 35.9741 13.7268 35.9544 13.5412 36.1161L11.9225 37.5237C11.7368 37.6854 11.7171 37.9674 11.8788 38.1531L13.2572 39.7377C13.4188 39.9235 13.3992 40.2054 13.2135 40.3672L11.6297 41.7463C11.4441 41.908 11.4244 42.19 11.586 42.3758L12.9929 43.9953C13.1545 44.1811 13.4363 44.2008 13.622 44.039L15.2057 42.6599C15.3914 42.4982 15.6732 42.5178 15.8349 42.7036L17.2417 44.3231C17.4033 44.5089 17.6851 44.5286 17.8708 44.3669L19.4895 42.9593C19.6752 42.7976 19.6948 42.5156 19.5332 42.3299Z" fill="#103B54"/>
<path d="M33.1842 56.4947C33.9584 56.2162 34.3604 55.3623 34.0819 54.5877C33.8035 53.813 32.9501 53.4109 32.1758 53.6894C31.4016 53.968 30.9996 54.8218 31.2781 55.5965C31.5565 56.3712 32.4099 56.7733 33.1842 56.4947Z" fill="#103B54"/>
<path d="M29.4154 55.957C30.0327 55.4126 30.092 54.4707 29.548 53.8531C29.004 53.2355 28.0626 53.1762 27.4453 53.7205C26.828 54.2648 26.7687 55.2067 27.3127 55.8243C27.8567 56.4419 28.7981 56.5013 29.4154 55.957Z" fill="#103B54"/>
<path d="M33.2335 60.3656C32.6131 60.9054 31.6716 60.8399 31.132 60.2192C30.5925 59.5984 30.658 58.6564 31.2784 58.1166C31.8988 57.5767 32.8403 57.6423 33.3799 58.263C33.9194 58.8837 33.8539 59.8257 33.2335 60.3656Z" fill="#103B54"/>
<path d="M29.131 60.1556C28.5106 60.6955 27.5691 60.6299 27.0295 60.0092C26.4899 59.3885 26.5555 58.4465 27.1758 57.9066C27.7962 57.3668 28.7377 57.4324 29.2773 58.0531C29.8169 58.6738 29.7535 59.6158 29.131 60.1556Z" fill="#103B54"/>
<path d="M19.5771 41.7002L18.1703 40.0807C18.0087 39.8949 18.0283 39.613 18.214 39.4512L19.8327 38.0437C20.0184 37.8819 20.038 37.6 19.8764 37.4142L18.4696 35.7947C18.3079 35.6089 18.0261 35.5892 17.8405 35.751L16.2218 37.1585C16.0361 37.3202 15.7543 37.3006 15.5926 37.1148L14.2142 35.5302C14.0526 35.3444 13.7708 35.3248 13.5851 35.4865L11.9664 36.894C11.7807 37.0558 11.7611 37.3377 11.9227 37.5235L13.3011 39.1081C13.4628 39.2939 13.4431 39.5758 13.2574 39.7375L11.6737 41.1167C11.488 41.2784 11.4683 41.5604 11.63 41.7461L13.0368 43.3657C13.1984 43.5515 13.4802 43.5711 13.6659 43.4094L15.2497 42.0303C15.4354 41.8685 15.7172 41.8882 15.8788 42.074L17.2856 43.6935C17.4473 43.8793 17.7291 43.899 17.9147 43.7372L19.5334 42.3297C19.7191 42.168 19.7388 41.886 19.5771 41.7002Z" fill="white"/>
<path d="M34.2142 54.5666C34.2714 53.7453 33.6523 53.0332 32.8315 52.976C32.0107 52.9188 31.2989 53.5382 31.2417 54.3594C31.1845 55.1807 31.8036 55.8928 32.6244 55.95C33.4453 56.0072 34.157 55.3879 34.2142 54.5666Z" fill="white"/>
<path d="M29.4508 55.3363C28.8304 55.8762 27.8889 55.8106 27.3493 55.1899C26.8097 54.5692 26.8753 53.6271 27.4957 53.0873C28.1161 52.5474 29.0576 52.613 29.5971 53.2337C30.1367 53.8545 30.0712 54.7943 29.4508 55.3363Z" fill="white"/>
<path d="M33.2855 59.7282C33.9028 59.1839 33.9622 58.242 33.4181 57.6244C32.8741 57.0068 31.9327 56.9474 31.3154 57.4917C30.6981 58.036 30.6388 58.978 31.1828 59.5955C31.7268 60.2131 32.6683 60.2725 33.2855 59.7282Z" fill="white"/>
<path d="M29.1734 59.526C28.553 60.0659 27.6115 60.0003 27.072 59.3796C26.5324 58.7588 26.5979 57.8168 27.2183 57.277C27.8387 56.7371 28.7802 56.8027 29.3198 57.4234C29.8615 58.0442 29.796 58.9862 29.1734 59.526Z" fill="white"/>
<path opacity="0.08" d="M22.1444 35.4319C22.968 36.3782 23.5163 37.4711 23.7981 38.612C23.8898 36.9399 23.3568 35.2308 22.1706 33.8648C19.7524 31.0825 15.5386 30.7896 12.7599 33.2091C12.3339 33.5806 11.9647 33.9937 11.6567 34.4374C14.8373 31.9327 19.4575 32.3414 22.1444 35.4319Z" fill="black"/>
<path opacity="0.08" d="M0.104792 43.7634C-0.192297 45.1382 0.139743 46.631 1.13368 47.7741C2.39412 49.2231 4.36015 49.6974 6.07497 49.1248L11.8092 47.5358C11.8092 47.5358 4.91938 49.3018 0.104792 43.7634Z" fill="black"/>
<path opacity="0.08" d="M22.8805 56.8618L18.5574 51.8677L14.2365 46.8735L11.9756 47.4921L16.9824 53.2337L21.9434 59.0125L22.8805 56.8618Z" fill="black"/>
<defs>
<linearGradient id="paint0_linear" x1="81.427" y1="30.74" x2="101.687" y2="25.834" gradientUnits="userSpaceOnUse">
<stop offset="9.53674e-07" stop-color="#9527FF"/>
<stop offset="1" stop-color="#22DBE0"/>
</linearGradient>
<linearGradient id="paint1_linear" x1="92.3699" y1="27.4844" x2="85.6939" y2="28.201" gradientUnits="userSpaceOnUse">
<stop offset="9.53674e-07" stop-color="#F232ED"/>
<stop offset="1" stop-color="#2281E0"/>
</linearGradient>
<linearGradient id="paint2_linear" x1="68.3473" y1="32.824" x2="47.5615" y2="34.3983" gradientUnits="userSpaceOnUse">
<stop offset="9.53674e-07" stop-color="#9527FF"/>
<stop offset="1" stop-color="#22DBE0"/>
</linearGradient>
<linearGradient id="paint3_linear" x1="56.9525" y1="33.0579" x2="63.5243" y2="31.6826" gradientUnits="userSpaceOnUse">
<stop offset="9.53674e-07" stop-color="#F232ED"/>
<stop offset="1" stop-color="#2281E0"/>
</linearGradient>
<linearGradient id="paint4_linear" x1="78.8246" y1="21.7828" x2="82.6846" y2="19.4101" gradientUnits="userSpaceOnUse">
<stop offset="9.53674e-07" stop-color="#9527FF"/>
<stop offset="1" stop-color="#22DBE0"/>
</linearGradient>
<linearGradient id="paint5_linear" x1="67.9793" y1="23.5061" x2="63.5761" y2="22.4379" gradientUnits="userSpaceOnUse">
<stop offset="9.53674e-07" stop-color="#9527FF"/>
<stop offset="1" stop-color="#22DBE0"/>
</linearGradient>
<linearGradient id="paint6_linear" x1="54.8273" y1="47.3685" x2="98.7612" y2="40.4331" gradientUnits="userSpaceOnUse">
<stop offset="9.53674e-07" stop-color="#9527FF"/>
<stop offset="1" stop-color="#22DBE0"/>
</linearGradient>
<linearGradient id="paint7_linear" x1="177.623" y1="76.6162" x2="101.912" y2="91.6727" gradientUnits="userSpaceOnUse">
<stop offset="9.53674e-07" stop-color="#F232ED"/>
<stop offset="1" stop-color="#2281E0"/>
</linearGradient>
<linearGradient id="paint8_linear" x1="-0.000128703" y1="50.869" x2="39.5667" y2="50.869" gradientUnits="userSpaceOnUse">
<stop stop-color="#2094D7"/>
<stop offset="1" stop-color="#5C35EC"/>
</linearGradient>
</defs>
</svg>
